<svg xmlns="http://www.w3.org/2000/svg" width="48" height="48" viewBox="0 0 48 48">
    <g fill="none" fill-rule="evenodd">
        <path d="M0 0L48 0 48 48 0 48z"/>
        <path fill="#FFF" fill-rule="nonzero" d="M34.5 18h-1.75v-3.429C32.75 9.84 28.83 6 24 6s-8.75 3.84-8.75 8.571V18H13.5c-1.925 0-3.5 1.543-3.5 3.429V38.57C10 40.457 11.575 42 13.5 42h21c1.925 0 3.5-1.543 3.5-3.429V21.43C38 19.543 36.425 18 34.5 18zm-15.75-3.429c0-2.845 2.345-5.142 5.25-5.142s5.25 2.297 5.25 5.142V18h-10.5v-3.429zm15.75 24h-21V21.43h21V38.57z"/>
    </g>
</svg>
