<svg xmlns="http://www.w3.org/2000/svg" width="48" height="48" viewBox="0 0 48 48">
    <g fill="none" fill-rule="evenodd">
        <path d="M0 0L48 0 48 48 0 48z"/>
        <path fill="#FFF" fill-rule="nonzero" d="M34.5 17.333h-1.75V13.81C32.75 8.947 28.83 5 24 5c-4.543 0-8.28 3.55-8.709 8.01h3.334c.359-2.663 2.632-4.662 5.375-4.662 2.992 0 5.425 2.449 5.425 5.462v3.523H13.5c-1.925 0-3.5 1.586-3.5 3.524v17.62C10 40.413 11.575 42 13.5 42h21c1.925 0 3.5-1.586 3.5-3.524V20.857c0-1.938-1.575-3.524-3.5-3.524zm0 21.143h-21V20.857h21v17.62z"/>
    </g>
</svg>
